<svg id="Layer_1" data-name="Layer 1" xmlns="http://www.w3.org/2000/svg" viewBox="0 0 99.92 68.79"><defs><style>.cls-1{fill:#005695;}.cls-2{fill:#6899c8;}</style></defs><title>Artboard 1</title><path class="cls-1" d="M40.41,38.07S13.69,23.18,9.9,20.18c-7.54-6-6-10.6,5.63-6.49S53.27,30.1,53.27,30.1,63.56,22.87,73.12,19c9.21-3.78,12.86-1.84,10.17,2.94s-14,14.7-14,14.7l22.05,5.15s8.07,3.35-4.24,4S54.3,43,54.3,43s-16.49,4.44-21.61,5c-2.45.24-3.31-3.19-3.06-4.29L23,42.11c-3.18-.73-2.57-2.45.37-2.2A43.11,43.11,0,0,1,31,41.25s1.1-2.57,2.21-3.18,2.2,2.08,2.45,4.41C35.63,42.48,39.18,39,40.41,38.07ZM79.48,21.27s-.36-14.08-.73-15.55-2.45-5.63-2.2.49S79.48,21.27,79.48,21.27Zm10,10.18c2.7,2,5.51,1.1,2.2-2.08C84.5,22.39,80,21.65,80,21.65S87.62,30.06,89.53,31.45ZM69.4,4c-5.43,3.17-5.32,13.48.25,23s14.5,14.74,19.92,11.57,5.32-13.48-.25-23S74.83.8,69.4,4Zm21,11.22c5.57,9.56,5.69,19.87.25,23s-14.35-2-19.93-11.57S65,6.77,70.47,3.61,84.82,5.62,90.39,15.18ZM71.48,7.4C67.35,10.31,68,19,72.84,26.74S85,38.44,89.14,35.52s3.52-11.58-1.35-19.34S75.61,4.48,71.48,7.4Zm17.13,8.43C93.49,23.6,94.1,32.26,90,35.17s-11.42-1-16.3-8.79S68.19,10,72.32,7,83.74,8.06,88.62,15.83Zm-14.71-5c-3,2.11-2.55,8.38,1,14s8.81,8.47,11.8,6.36,2.55-8.38-1-14S76.9,8.71,73.91,10.82Zm12.41,6.1c3.53,5.62,4,11.89,1,14s-8.27-.74-11.8-6.36-4-11.89-1-14S82.78,11.3,86.31,16.93Z"/><path class="cls-1" d="M1.58,65.54a4.75,4.75,0,0,1-.84-3v-4.4a4.79,4.79,0,0,1,.83-3.05A3.44,3.44,0,0,1,4.4,54,3.44,3.44,0,0,1,7.11,55a3.86,3.86,0,0,1,.8,2.61v1.05H5.28V57.4a3.05,3.05,0,0,0-.15-1.08q-.15-.38-.72-.38a.74.74,0,0,0-.75.4,2.75,2.75,0,0,0-.18,1.11v5.74a2.59,2.59,0,0,0,.19,1.11.75.75,0,0,0,.75.38.69.69,0,0,0,.72-.38,3,3,0,0,0,.16-1.11V61.9H7.91V63a4.06,4.06,0,0,1-.8,2.67,3.36,3.36,0,0,1-2.71,1A3.41,3.41,0,0,1,1.58,65.54Z"/><path class="cls-1" d="M9.4,54.2h2.7V66.41H9.4Z"/><path class="cls-1" d="M13.93,54.2h5.49V56H16.62v3h2.13v1.87H16.62v3.65h2.82v1.82H13.93Z"/><path class="cls-1" d="M20.66,54.2h2.7V64.58h2.8v1.82h-5.5Z"/><path class="cls-2" d="M36.16,67.92A6.58,6.58,0,0,1,35,66.57h-.26a3.47,3.47,0,0,1-2.82-1,4.61,4.61,0,0,1-.84-3V58a4.55,4.55,0,0,1,.84-3,3.5,3.5,0,0,1,2.82-1,3.53,3.53,0,0,1,2.84,1,4.53,4.53,0,0,1,.85,3v4.54A5.69,5.69,0,0,1,38,64.8a2.61,2.61,0,0,1-1.23,1.33A5.07,5.07,0,0,0,38,67.21l-.57,1.6A5.12,5.12,0,0,1,36.16,67.92Zm-.71-3.63a2.5,2.5,0,0,0,.18-1V57.36a2.49,2.49,0,0,0-.18-1.05.75.75,0,0,0-.75-.38.72.72,0,0,0-.74.37,2.68,2.68,0,0,0-.17,1.06v5.88a2.7,2.7,0,0,0,.17,1,.71.71,0,0,0,.74.38A.75.75,0,0,0,35.45,64.29Z"/><path class="cls-2" d="M41.39,66.14a2.42,2.42,0,0,1-1.12-1.31,6.39,6.39,0,0,1-.32-2.21V54.2h2.67V63a3,3,0,0,0,.19,1.18.74.74,0,0,0,.76.44.73.73,0,0,0,.75-.44A3.14,3.14,0,0,0,44.49,63V54.2h2.68v8.42a6.26,6.26,0,0,1-.33,2.21,2.47,2.47,0,0,1-1.12,1.31,4.44,4.44,0,0,1-2.16.44A4.48,4.48,0,0,1,41.39,66.14Z"/><path class="cls-2" d="M48.89,54.2h5.49V56H51.59v3h2.13v1.87H51.59v3.65h2.82v1.82H48.89Zm2.91-4h2.5l-1.9,3H50.85Z"/><path class="cls-2" d="M55.63,54.2h3.18a5.36,5.36,0,0,1,2.86.65,2.67,2.67,0,0,1,1,2.46q0,2.22-1.79,2.55a2.22,2.22,0,0,1,1.63.9,3.6,3.6,0,0,1,.54,2.11q0,3.54-3.69,3.54H55.63Zm3.23,4.88A1.42,1.42,0,0,0,60,58.69a2,2,0,0,0,.31-1.22,1.43,1.43,0,0,0-.39-1.09A1.61,1.61,0,0,0,58.79,56h-.47v3.07Zm0,5.44a1.5,1.5,0,0,0,1.21-.43,2.11,2.11,0,0,0,.35-1.35,2.31,2.31,0,0,0-.35-1.46,1.53,1.53,0,0,0-1.23-.42h-.56v3.66Z"/><path class="cls-2" d="M64.49,54.2H70V56H67.19v3h2.13v1.87H67.19v3.65H70v1.82H64.49Zm2.91-4h2.5l-1.9,3H66.45Z"/><path class="cls-2" d="M71.9,65.54a4.75,4.75,0,0,1-.84-3v-4.4a4.79,4.79,0,0,1,.83-3.05A4.43,4.43,0,0,1,77.44,55a3.86,3.86,0,0,1,.8,2.61v1.05H75.6V57.4a3.05,3.05,0,0,0-.15-1.08q-.15-.38-.72-.38a.74.74,0,0,0-.75.4,2.75,2.75,0,0,0-.18,1.11v5.74A2.59,2.59,0,0,0,74,64.29a.75.75,0,0,0,.75.38.69.69,0,0,0,.72-.38,3,3,0,0,0,.16-1.11V61.9h2.64V63a4.06,4.06,0,0,1-.8,2.67,3.36,3.36,0,0,1-2.71,1A3.41,3.41,0,0,1,71.9,65.54Z"/><path class="cls-2" d="M80.39,65.57a4.61,4.61,0,0,1-.84-3V58a4.55,4.55,0,0,1,.84-3A4.48,4.48,0,0,1,86,55a4.53,4.53,0,0,1,.85,3v4.54a4.58,4.58,0,0,1-.85,3,3.52,3.52,0,0,1-2.84,1A3.47,3.47,0,0,1,80.39,65.57ZM84,64.29a2.5,2.5,0,0,0,.18-1V57.36A2.49,2.49,0,0,0,84,56.31a.75.75,0,0,0-.75-.38.72.72,0,0,0-.72.38,2.5,2.5,0,0,0-.18,1v5.88a2.7,2.7,0,0,0,.17,1,.71.71,0,0,0,.74.38A.75.75,0,0,0,84,64.29Z"/><path class="cls-2" d="M88.56,54.2h2.7V66.41h-2.7Z"/><path class="cls-2" d="M93.72,65.66a4.47,4.47,0,0,1-.91-2.95l2.31-.35A3.94,3.94,0,0,0,95.39,64a.85.85,0,0,0,.79.5q.68,0,.68-.89a2.24,2.24,0,0,0-.32-1.22,5.07,5.07,0,0,0-1-1.1l-1.05-.92A5.92,5.92,0,0,1,93.24,59a3.44,3.44,0,0,1-.41-1.77,3,3,0,0,1,.91-2.37A3.59,3.59,0,0,1,96.25,54a2.55,2.55,0,0,1,2.36,1,4.88,4.88,0,0,1,.67,2.46L97,57.79a5.23,5.23,0,0,0-.17-1.37.57.57,0,0,0-.63-.41.6.6,0,0,0-.54.29,1.19,1.19,0,0,0-.19.66A1.79,1.79,0,0,0,95.73,58a5.94,5.94,0,0,0,.88.94l1,.89A7.15,7.15,0,0,1,99,61.51a3.88,3.88,0,0,1,.5,2,3.09,3.09,0,0,1-.4,1.56A2.9,2.9,0,0,1,98,66.18a3.92,3.92,0,0,1-4.27-.52Z"/></svg>